<?xml version="1.0" encoding="utf-8"?>
<!-- Generator: Adobe Illustrator 27.3.1, SVG Export Plug-In . SVG Version: 6.00 Build 0)  -->
<svg version="1.1" id="Capa_1" xmlns="http://www.w3.org/2000/svg" xmlns:xlink="http://www.w3.org/1999/xlink" x="0px" y="0px"
	 viewBox="0 0 512 512" style="enable-background:new 0 0 512 512;" xml:space="preserve">
<style type="text/css">
	.st0{fill:#333;}
</style>
<g>
	<path class="st0" d="M469.7,1.1c-5.7-2.3-12.1-0.9-16.4,3.4l-29.3,30l-29.3-30C391.9,1.6,388,0,384,0s-7.9,1.6-10.7,4.5l-29.3,30
		l-29.3-30C311.9,1.6,308,0,304,0s-7.9,1.6-10.7,4.5l-29.3,30l-29.3-30C231.9,1.6,228,0,224,0s-7.9,1.6-10.7,4.5l-29.3,30l-29.3-30
		c-4.3-4.4-10.7-5.7-16.4-3.4C132.7,3.4,129,8.9,129,15v194H48c-8.3,0-15,6.7-15,15v225c0,34.7,28.3,63,63,63h320
		c34.7,0,63-28.3,63-63V15C479,8.9,475.3,3.4,469.7,1.1z M63,449V239h66v186v24c0,18.2-14.8,33-33,33S63,467.2,63,449z M449,449
		c0,18.2-14.8,33-33,33H149.6c5.9-9.6,9.4-20.9,9.4-33v-24V224V51.9l14.3,14.6c2.8,2.9,6.7,4.5,10.7,4.5s7.9-1.6,10.7-4.5l29.3-30
		l29.3,30c2.8,2.9,6.7,4.5,10.7,4.5s7.9-1.6,10.7-4.5l29.3-30l29.3,30c2.8,2.9,6.7,4.5,10.7,4.5s7.9-1.6,10.7-4.5l29.3-30l29.3,30
		c2.8,2.9,6.7,4.5,10.7,4.5s7.9-1.6,10.7-4.5L449,51.9V449z"/>
	<path class="st0" d="M408,281H200c-8.3,0-15,6.7-15,15v144c0,8.3,6.7,15,15,15h208c8.3,0,15-6.7,15-15V296
		C423,287.7,416.3,281,408,281z M393,353H279v-42h114V353z M249,311v42h-34v-42H249z M215,383h34v42h-34V383z M279,425v-42h114v42
		H279z"/>
</g>
<path class="st0" d="M211.3,127.5c-6.5,0-11.8,6.7-11.8,15s5.3,15,11.8,15h188.8c6.5,0,11.8-6.7,11.8-15s-5.3-15-11.8-15H211.3z"/>
<path class="st0" d="M212.4,188.5c-6.5,0-11.8,6.7-11.8,15s5.3,15,11.8,15h188.8c6.5,0,11.8-6.7,11.8-15s-5.3-15-11.8-15H212.4z"/>
</svg>
