<?xml version="1.0" encoding="utf-8"?>
<!-- Generator: Adobe Illustrator 27.3.1, SVG Export Plug-In . SVG Version: 6.00 Build 0)  -->
<svg version="1.1" id="Capa_1" xmlns="http://www.w3.org/2000/svg" xmlns:xlink="http://www.w3.org/1999/xlink" x="0px" y="0px"
	 viewBox="0 0 512 512" style="enable-background:new 0 0 512 512;" xml:space="preserve">
<style type="text/css">
	.st0{fill:#333;}
</style>
<g>
	<g>
		<path class="st0" d="M511.7,293.1c-0.8-4-3.1-7.4-6.5-9.6c-16.7-10.9-36.8-15.8-56.6-13.7c-19.8,2.1-38.5,11-52.6,25l-49.4,49.4
			c-6.9-13.8-21.2-23.2-37.6-23.2h-56l-2.3-1.7c-19.1-14.4-42.9-22.3-66.8-22.3c-20.6,0-40.3,5.6-57.5,16c-2.8-13.7-14.9-24-29.4-24
			H30c-16.5,0-30,13.5-30,30v163c0,16.5,13.5,30,30,30h67c11.1,0,20.9-6.1,26-15.1c18.9,9.9,40.1,15.1,61.6,15.1h113.1
			c44,0,85.1-21.7,109.8-58.1l101.9-149.5C511.7,301.1,512.5,297,511.7,293.1L511.7,293.1z M97,482H30V319h67l0,24.9c0,0,0,0,0,0.1
			v128c0,0.1,0,0.2,0,0.3L97,482C97,482,97,482,97,482L97,482z M382.7,437c-19.2,28.2-51,45-85.1,45H184.6
			c-20.5,0-40.7-6.2-57.6-17.6V350.2c15.3-15,35.5-23.2,56.9-23.2c17.5,0,34.8,5.8,48.8,16.3l6.3,4.7c2.6,1.9,5.8,3,9,3h61
			c6.6,0,12,5.4,12,12c0,16.5-13.5,30-30,30h-67c-8.3,0-15,6.7-15,15s6.7,15,15,15h67c24.4,0,45.5-14.7,54.9-35.7
			c0.3-0.2,0.5-0.5,0.8-0.7l70.6-70.6c15.3-15.3,37.7-20.3,57.6-14L382.7,437z"/>
		<path class="st0" d="M296,288c79.4,0,144-64.6,144-144S375.4,0,296,0S152,64.6,152,144S216.6,288,296,288z M296,30
			c62.9,0,114,51.1,114,114s-51.1,114-114,114s-114-51.1-114-114S233.1,30,296,30z"/>
		<path class="st0" d="M64,47c8.3,0,15-6.7,15-15V15c0-8.3-6.7-15-15-15S49,6.7,49,15v17C49,40.3,55.7,47,64,47z"/>
		<path class="st0" d="M15,79h17c8.3,0,15-6.7,15-15s-6.7-15-15-15H15C6.7,49,0,55.7,0,64S6.7,79,15,79z"/>
		<path class="st0" d="M64,127c8.3,0,15-6.7,15-15V96c0-8.3-6.7-15-15-15s-15,6.7-15,15v16C49,120.3,55.7,127,64,127z"/>
		<path class="st0" d="M96,79h16c8.3,0,15-6.7,15-15s-6.7-15-15-15H96c-8.3,0-15,6.7-15,15S87.7,79,96,79z"/>
	</g>
	<g>
		<path class="st0" d="M345.2,87.9c8.9,8,13.4,18.4,13.4,31.2c0,12.6-4.4,22.8-13.2,30.7c-8.8,7.9-18.6,11.9-29.5,11.9h-38.9v53.2
			h-25v-139h63.9C326.5,75.8,336.3,79.9,345.2,87.9z M276.9,97.4v42.7h35.2c5.3,0,10.2-2,14.7-5.9c4.5-3.9,6.7-9,6.7-15.3
			c0-6.7-2.2-12-6.7-15.8c-4.5-3.8-9.4-5.7-14.7-5.7H276.9z"/>
	</g>
</g>
</svg>
